<svg version="1.1" xmlns="http://www.w3.org/2000/svg" width="18" height="18" viewBox="0 0 448 448">
<title>eye</title>
<g id="icomoon-ignore">
</g>
<path d="M138.75 333.75l19.5-35.25c-29-21-46.25-54.75-46.25-90.5 0-19.75 5.25-39.25 15.25-56.25-39 20-71.5 51.5-95.25 88.25 26 40.25 62.75 74 106.75 93.75zM236 144c0-6.5-5.5-12-12-12-41.75 0-76 34.25-76 76 0 6.5 5.5 12 12 12s12-5.5 12-12c0-28.75 23.5-52 52-52 6.5 0 12-5.5 12-12zM326.75 96.25c0 0.5 0 1.75-0.25 2.25-52.75 94.25-105 189-157.75 283.25l-12.25 22.25c-1.5 2.5-4.25 4-7 4-4.5 0-28.25-14.5-33.5-17.5-2.5-1.5-4-4-4-7 0-4 8.5-17.5 11-21.75-48.5-22-89.25-59.5-118-104.5-3.25-5-5-11-5-17.25 0-6 1.75-12.25 5-17.25 49.5-76 126.75-126.75 219-126.75 15 0 30.25 1.5 45 4.25l13.5-24.25c1.5-2.5 4-4 7-4 4.5 0 28 14.5 33.25 17.5 2.5 1.5 4 4 4 6.75zM336 208c0 46.5-28.75 88-72 104.5l70-125.5c1.25 7 2 14 2 21zM448 240c0 6.5-1.75 11.75-5 17.25-7.75 12.75-17.5 25-27.25 36.25-49 56.25-116.5 90.5-191.75 90.5l18.5-33c72.75-6.25 134.5-50.5 173.5-111-18.5-28.75-42.25-54-70.5-73.5l15.75-28c31 20.75 62.25 52 81.75 84.25 3.25 5.5 5 10.75 5 17.25z"></path>
</svg>